<?xml version="1.0" encoding="UTF-8" standalone="no"?>
<svg
   xmlns:dc="http://purl.org/dc/elements/1.1/"
   xmlns:cc="http://creativecommons.org/ns#"
   xmlns:rdf="http://www.w3.org/1999/02/22-rdf-syntax-ns#"
   xmlns:svg="http://www.w3.org/2000/svg"
   xmlns="http://www.w3.org/2000/svg"
   xmlns:sodipodi="http://sodipodi.sourceforge.net/DTD/sodipodi-0.dtd"
   xmlns:inkscape="http://www.inkscape.org/namespaces/inkscape"
   version="1.1"
   id="Capa_1"
   x="0px"
   y="0px"
   viewBox="0 0 500 500"
   xml:space="preserve"
   sodipodi:docname="noite.svg"
   width="500"
   height="500"
   inkscape:version="1.0 (4035a4fb49, 2020-05-01)"><metadata
   id="metadata41"><rdf:RDF><cc:Work
       rdf:about=""><dc:format>image/svg+xml</dc:format><dc:type
         rdf:resource="http://purl.org/dc/dcmitype/StillImage" /><dc:title /></cc:Work></rdf:RDF></metadata><defs
   id="defs39" /><sodipodi:namedview
   inkscape:document-rotation="0"
   pagecolor="#ffffff"
   bordercolor="#666666"
   borderopacity="1"
   objecttolerance="10"
   gridtolerance="10"
   guidetolerance="10"
   inkscape:pageopacity="0"
   inkscape:pageshadow="2"
   inkscape:window-width="1920"
   inkscape:window-height="1016"
   id="namedview37"
   showgrid="false"
   inkscape:zoom="0.71777344"
   inkscape:cx="320.17297"
   inkscape:cy="201.92846"
   inkscape:window-x="0"
   inkscape:window-y="27"
   inkscape:window-maximized="1"
   inkscape:current-layer="Capa_1" />
<path
   style="fill:#808080;stroke-width:0.975809"
   d="m 495.39968,203.95481 c -1.26562,-6.82188 -7.14585,-11.81802 -14.08385,-11.96537 -6.9624,-0.10734 -13.02315,4.59899 -14.57468,11.36135 -14.89085,64.88837 -71.8615,110.20786 -138.54439,110.20786 -78.37697,0 -142.14219,-63.76521 -142.14219,-142.14219 0,-66.68288 45.3195,-123.652562 110.20982,-138.541455 6.76236,-1.551537 11.50576,-7.636681 11.36134,-14.572732 C 307.48034,11.366223 302.4842,5.4840465 295.66329,4.2174464 280.58899,1.4188263 265.16145,0 249.8071,0 183.08128,0 120.34847,25.984817 73.166158,73.167134 25.984817,120.34945 0,183.08128 0,249.8071 0,316.53292 25.984817,379.26475 73.166158,426.44707 120.34847,473.62938 183.08128,499.6142 249.8071,499.6142 c 66.72582,0 129.45765,-25.98482 176.63997,-73.16713 47.18231,-47.18232 73.16713,-109.91415 73.16713,-176.63997 0,-15.34167 -1.41785,-30.76823 -4.21452,-45.85229 z"
   id="path2" />
<path
   style="fill:#4d4d4d;stroke-width:0.975809"
   d="m 495.39968,203.95481 c -1.26562,-6.82188 -7.14585,-11.81802 -14.08385,-11.96537 -6.9624,-0.10734 -13.02315,4.59899 -14.57468,11.36135 -14.89085,64.88837 -71.8615,110.20786 -138.54439,110.20786 -39.18849,0 -74.72355,-15.94081 -100.46148,-41.67875 L 73.166158,426.44804 c 47.182312,47.18134 109.915122,73.16616 176.640942,73.16616 66.72582,0 129.45765,-25.98482 176.63997,-73.16713 47.18231,-47.18232 73.16713,-109.91415 73.16713,-176.63997 0,-15.34167 -1.41785,-30.76823 -4.21452,-45.85229 z"
   id="path4" />
<g
   id="g6">
</g>
<g
   id="g8">
</g>
<g
   id="g10">
</g>
<g
   id="g12">
</g>
<g
   id="g14">
</g>
<g
   id="g16">
</g>
<g
   id="g18">
</g>
<g
   id="g20">
</g>
<g
   id="g22">
</g>
<g
   id="g24">
</g>
<g
   id="g26">
</g>
<g
   id="g28">
</g>
<g
   id="g30">
</g>
<g
   id="g32">
</g>
<g
   id="g34">
</g>
</svg>
